<?xml version="1.0" standalone="no"?>
<!DOCTYPE svg PUBLIC "-//W3C//DTD SVG 20010904//EN"
 "http://www.w3.org/TR/2001/REC-SVG-20010904/DTD/svg10.dtd">
<svg version="1.0" xmlns="http://www.w3.org/2000/svg"
 width="364.000000pt" height="128.000000pt" viewBox="0 0 364.000000 128.000000"
 preserveAspectRatio="xMidYMid meet">

<g transform="translate(0.000000,128.000000) scale(0.100000,-0.100000)"
fill="#000000" stroke="none">
<path d="M2225 1153 c-65 -34 -68 -40 -60 -128 l6 -80 -46 -24 c-25 -13 -59
-39 -75 -58 l-30 -33 -15 35 c-33 80 -76 114 -142 115 -53 0 -90 -14 -125 -48
-25 -23 -28 -24 -28 -6 0 10 -7 28 -15 39 -14 18 -20 18 -72 7 -101 -21 -194
-95 -247 -196 l-14 -28 -21 68 c-11 38 -32 112 -46 164 -39 139 -40 140 -130
140 -43 0 -77 -5 -81 -11 -8 -14 -94 -688 -94 -741 0 -51 27 -68 106 -68 73 0
91 15 96 80 2 37 7 45 22 45 13 0 22 -10 28 -30 16 -52 30 -73 51 -79 32 -8
130 16 147 37 15 18 17 18 69 -14 44 -28 64 -34 110 -34 l56 0 3 37 3 37 47
-30 c56 -35 159 -69 211 -69 45 0 57 20 67 106 l7 54 44 -44 c67 -68 121 -90
230 -94 91 -4 93 -3 104 21 l12 26 36 -25 c30 -20 48 -24 109 -24 46 0 84 6
103 15 21 12 34 13 48 5 28 -14 126 -13 139 3 6 7 12 30 15 52 l4 40 1 -45 c1
-26 7 -51 14 -58 16 -16 152 -16 165 1 6 6 13 75 17 151 4 76 11 146 17 155
10 16 8 -78 -7 -236 -6 -63 -4 -73 14 -91 11 -11 41 -24 66 -27 45 -7 46 -8
81 -80 46 -96 70 -115 146 -115 51 0 63 4 93 31 90 79 125 239 126 574 0 243
-5 265 -58 265 -50 0 -103 -20 -112 -43 -5 -12 -16 -67 -24 -122 -9 -55 -22
-120 -31 -145 l-15 -45 5 65 c3 36 13 102 22 146 22 106 12 133 -55 157 -82
30 -100 21 -117 -57 l-6 -29 -24 35 c-13 20 -31 38 -40 42 -34 13 -93 6 -117
-14 l-25 -19 -28 29 c-22 23 -38 30 -68 30 -21 0 -47 -5 -58 -11 -15 -8 -34
-7 -69 2 -60 15 -80 3 -80 -50 0 -59 -14 -68 -39 -27 -30 49 -78 76 -134 76
-60 0 -94 -14 -132 -54 l-32 -34 -12 127 c-7 69 -17 136 -23 149 -14 26 -49
29 -93 5z m76 -68 c4 -23 12 -101 19 -175 11 -136 22 -176 33 -122 3 16 21 49
39 73 59 77 149 87 213 23 38 -38 81 -123 88 -176 5 -35 2 -40 -83 -124 -49
-48 -87 -91 -84 -96 13 -21 58 -6 97 32 28 29 45 39 58 35 16 -6 19 0 20 37 1
24 4 108 8 188 6 141 7 145 29 148 12 2 36 -4 53 -12 27 -13 33 -13 45 -1 39
38 101 24 133 -31 l20 -33 36 36 c30 30 40 35 68 29 40 -8 70 -40 93 -103 24
-67 34 -74 34 -25 0 22 5 64 11 93 l11 51 35 -5 c19 -4 46 -13 60 -22 20 -14
24 -23 20 -48 -3 -18 -13 -77 -22 -132 -16 -93 -16 -208 0 -223 22 -22 65 106
89 268 9 57 20 108 24 111 17 16 86 28 99 17 19 -16 18 -414 -2 -528 -28 -157
-73 -240 -144 -261 -33 -10 -45 -9 -78 7 -30 15 -45 33 -70 84 -18 36 -33 74
-33 85 0 17 -7 20 -55 21 -31 0 -60 5 -66 11 -7 7 -8 52 -1 144 12 172 0 281
-28 264 -18 -11 -33 -93 -44 -240 l-11 -150 -60 0 -60 0 5 100 c8 151 6 292
-3 302 -26 25 -67 -146 -67 -280 0 -104 -2 -107 -66 -107 -49 0 -54 2 -60 25
-3 14 -9 25 -12 25 -3 0 -21 -15 -40 -33 -31 -30 -38 -32 -103 -32 l-70 0 -42
45 c-23 25 -50 56 -59 70 -16 24 -16 23 -15 -45 l2 -70 -80 3 c-69 3 -88 8
-140 37 -64 35 -100 75 -127 140 -19 48 -23 41 -37 -83 -5 -51 -13 -97 -16
-102 -16 -26 -142 3 -215 50 -28 18 -58 45 -67 61 -25 41 -34 36 -27 -15 4
-25 4 -56 0 -71 -6 -24 -10 -26 -39 -20 -52 11 -125 55 -167 101 l-39 43 2
-52 2 -52 -57 -15 c-69 -17 -75 -13 -92 61 -11 52 -13 54 -41 50 -54 -6 -64
-17 -67 -74 l-3 -52 -69 -3 -69 -3 6 83 c3 46 12 137 21 203 47 369 57 441 61
453 3 9 23 12 66 10 l61 -3 33 -115 c18 -63 47 -168 65 -232 18 -65 36 -118
41 -118 5 0 9 21 9 47 0 93 76 196 183 246 30 15 70 27 87 27 l31 0 -3 -92 -3
-92 -45 -11 c-64 -17 -96 -40 -114 -85 -27 -68 -8 -98 99 -155 l45 -23 0 57
c0 46 6 66 29 103 16 26 39 52 50 58 27 14 26 26 -4 62 -33 39 -32 66 4 116
35 47 42 52 88 62 83 19 145 -35 168 -148 l11 -57 17 32 c29 54 77 103 129
129 l49 25 -7 84 -7 84 34 21 c50 30 72 23 80 -25z m-615 -388 c-32 -42 -56
-99 -56 -132 0 -23 -2 -25 -22 -14 -39 20 -68 52 -68 75 0 26 50 72 88 79 22
5 44 11 80 24 2 1 -8 -14 -22 -32z m1186 -202 c-9 -69 -9 -69 -11 -19 0 28 2
73 6 100 12 76 16 5 5 -81z"/>
<path d="M1822 768 c-6 -6 -12 -15 -12 -19 0 -11 50 5 50 16 1 15 -24 17 -38
3z"/>
<path d="M2156 710 c-31 -28 -36 -38 -36 -77 0 -37 5 -50 31 -73 28 -27 66
-46 74 -38 6 6 -17 203 -25 211 -4 5 -24 -6 -44 -23z m34 -92 c0 -39 -8 -46
-28 -26 -15 15 -15 61 0 76 17 17 28 -3 28 -50z"/>
<path d="M2474 705 c-17 -42 -18 -75 -1 -75 6 0 31 19 55 41 35 33 41 43 31
55 -6 8 -25 14 -41 14 -24 0 -32 -6 -44 -35z"/>
<path d="M1191 719 c-1 -9 -4 -31 -7 -48 -5 -24 -3 -31 10 -31 11 0 16 8 15
28 -1 32 -17 77 -18 51z"/>
<path d="M1822 610 c-56 -25 -56 -57 1 -79 20 -7 40 -12 43 -9 9 10 17 108 8
108 -5 0 -28 -9 -52 -20z"/>
<path d="M3227 431 c-4 -19 -7 -50 -7 -70 l0 -36 27 28 27 27 -20 42 -21 42
-6 -33z"/>
<path d="M3403 378 c-12 -11 -35 -21 -52 -22 -35 -1 -35 -1 -20 -44 12 -34 42
-50 64 -32 13 11 41 107 33 115 -2 3 -14 -5 -25 -17z"/>
<path d="M368 1133 c-24 -3 -42 -11 -48 -23 -9 -17 -29 -175 -30 -234 0 -36
-9 -11 -30 88 -29 132 -34 139 -90 133 -25 -3 -63 -12 -85 -19 -39 -13 -40
-14 -43 -67 -3 -43 15 -120 84 -375 47 -177 91 -327 97 -335 9 -10 27 -12 82
-6 38 4 115 8 170 9 111 1 106 -3 120 89 9 56 37 50 56 -10 19 -62 44 -75 119
-61 30 5 61 14 68 20 27 23 11 108 -79 423 -49 175 -94 326 -100 336 -7 13
-26 19 -81 23 -40 3 -95 7 -123 9 -27 3 -67 2 -87 0z m116 -40 c3 -10 2 -52
-4 -93 -41 -335 -79 -617 -86 -640 -5 -21 -134 -43 -150 -26 -6 6 -37 108 -68
226 -32 118 -71 264 -87 324 -17 60 -29 118 -27 130 2 15 18 24 63 38 33 10
63 18 67 18 10 0 33 -84 68 -250 17 -79 32 -146 34 -148 4 -3 10 53 27 263 7
77 15 144 19 148 7 7 67 19 127 26 6 0 14 -7 17 -16z m151 -14 c4 -5 20 -56
35 -112 16 -56 47 -165 69 -242 22 -77 49 -173 60 -212 37 -127 28 -149 -59
-155 -47 -3 -52 1 -72 73 l-13 45 -42 -9 c-40 -8 -43 -10 -43 -42 0 -19 -4
-45 -10 -59 -9 -24 -14 -26 -70 -26 -46 0 -62 4 -67 16 -3 8 -1 57 5 107 24
204 73 583 77 605 5 20 11 22 65 22 32 0 62 -5 65 -11z"/>
<path d="M591 688 c-1 -27 4 -48 9 -48 19 0 21 27 6 61 l-14 34 -1 -47z"/>
</g>
</svg>
